<?xml version="1.0" encoding="utf-8"?>
<!-- Generator: Adobe Illustrator 22.1.0, SVG Export Plug-In . SVG Version: 6.00 Build 0)  -->
<svg version="1.1" id="Layer_1" xmlns="http://www.w3.org/2000/svg" xmlns:xlink="http://www.w3.org/1999/xlink" x="0px" y="0px"
	 width="545.6px" height="553.6px" viewBox="0 0 545.6 553.6" style="enable-background:new 0 0 545.6 553.6;" xml:space="preserve"
	>
<style type="text/css">
	.st0{fill:#F4F4F5;}
	.st1{fill:#E5E4E4;stroke:#E5E4E4;stroke-miterlimit:10;}
	.st2{fill:#A9AEB7;}
	.st3{fill:#161B1F;}
	.st4{fill:#FFFFFF;}
</style>
<path class="st0" d="M278.1,537.8c-9,4.3-23.7,4.3-32.6,0l-230-110.3c-9-4.3-8.9-11.2,0.2-15.3l229.7-103.9c9.1-4.1,23.9-4.1,33,0
	L508,412.2c9.1,4.1,9.2,11,0.2,15.3L278.1,537.8z"/>
<path class="st1" d="M274.8,544.9c-7.5,0-14.7-1.4-20.3-4.1L24.5,430.4c-10.8-5.2-11.9-12.9-11.8-16c0-3.1,1.3-10.8,12.2-15.7
	l229.7-103.9c5.5-2.5,12.7-3.9,20.3-3.9c7.5,0,14.7,1.4,20.3,3.9l229.7,103.9c10.9,4.9,12.2,12.6,12.2,15.7s-1,10.8-11.8,16
	l-230,110.4C289.5,543.4,282.3,544.9,274.8,544.9z M33.6,414.6l228.8,109.8c3.1,1.5,7.6,2.4,12.4,2.4c4.8,0,9.3-0.9,12.4-2.4
	L516,414.6L287.5,311.3c-3.2-1.4-7.9-2.3-12.8-2.3s-9.6,0.8-12.8,2.3L33.6,414.6z"/>
<path class="st1" d="M274.2,544.9c-7.5,0-14.7-1.4-20.3-4.1l-230-110.3c-10.8-5.2-11.9-12.9-11.8-16c0-3.1,1.3-10.8,12.2-15.7
	L254,294.8c5.5-2.5,12.7-3.9,20.3-3.9s14.7,1.4,20.3,3.9l229.7,103.9c10.9,4.9,12.2,12.6,12.2,15.7c0,3.1-1,10.8-11.8,16l-230,110.4
	C288.9,543.4,281.7,544.9,274.2,544.9L274.2,544.9z M33,414.6l228.8,109.8c3.1,1.5,7.6,2.4,12.4,2.4s9.3-0.9,12.4-2.4l228.8-109.8
	L287,311.3c-3.2-1.4-7.9-2.3-12.8-2.3c-4.9,0-9.6,0.8-12.8,2.3L33,414.6z"/>
<path class="st0" d="M285.5,454.3c-9,4.3-23.7,4.3-32.6,0L22.8,343.9c-9-4.3-8.9-11.2,0.2-15.3l229.7-103.9c9.1-4.1,23.9-4.1,33,0
	l229.7,103.9c9.1,4.1,9.2,11,0.2,15.3L285.5,454.3z"/>
<path class="st1" d="M520.7,319.8l-71.2-32.2c-3.5,2.5-6.9,5-10.4,7.5c-0.5,0.4-1,0.7-1.5,1.2c-0.9,0.7-1.9,1.4-2.7,2.2
	c-0.6,0.5-1.2,1.1-1.9,1.6l79.1,35.7L283.2,445.6c-3.1,1.5-7.6,2.4-12.4,2.4c-4.8,0-9.3-0.9-12.4-2.4L29.5,335.8l86-38.9
	c-2.4-1-4.8-2-7.2-3c-5.2-2.2-10.4-4.4-15.5-6.6l-72,32.6c-10.9,4.9-12.2,12.6-12.2,15.7c0,3.1,1,10.8,11.8,16l230,110.4
	c5.5,2.6,12.7,4.1,20.3,4.1s14.7-1.4,20.3-4.1l230-110.4c10.8-5.2,11.9-12.9,11.8-16C532.8,332.5,531.6,324.7,520.7,319.8
	L520.7,319.8z"/>
<g>
	<path class="st2" d="M271.5,260.2c1.4,0,2.5-1.1,2.5-2.5v-2.9c0-1.4-1.1-2.5-2.5-2.5s-2.5,1.1-2.5,2.5v2.9
		C269,259.1,270.2,260.2,271.5,260.2z"/>
	<path class="st2" d="M271.5,299.9c1.4,0,2.5-1.1,2.5-2.5v-2.9c0-1.4-1.1-2.5-2.5-2.5s-2.5,1.1-2.5,2.5v2.9
		C269,298.8,270.2,299.9,271.5,299.9z"/>
	<path class="st2" d="M271.5,273.5c1.4,0,2.5-1.1,2.5-2.5v-2.9c0-1.4-1.1-2.5-2.5-2.5s-2.5,1.1-2.5,2.5v2.9
		C269,272.3,270.2,273.5,271.5,273.5z"/>
	<path class="st2" d="M271.5,313.1c1.4,0,2.5-1.1,2.5-2.5v-2.9c0-1.4-1.1-2.5-2.5-2.5s-2.5,1.1-2.5,2.5v2.9
		C269,312,270.2,313.1,271.5,313.1z"/>
	<path class="st2" d="M271.5,326.4c1.4,0,2.5-1.1,2.5-2.5V321c0-1.4-1.1-2.5-2.5-2.5s-2.5,1.1-2.5,2.5v2.9
		C269,325.2,270.2,326.4,271.5,326.4z"/>
	<path class="st2" d="M271.5,194.1c1.4,0,2.5-1.1,2.5-2.5v-2.9c0-1.4-1.1-2.5-2.5-2.5s-2.5,1.1-2.5,2.5v2.9
		C269,193,270.2,194.1,271.5,194.1z"/>
	<path class="st2" d="M271.5,207.3c1.4,0,2.5-1.1,2.5-2.5V202c0-1.4-1.1-2.5-2.5-2.5s-2.5,1.1-2.5,2.5v2.9
		C269,206.2,270.2,207.3,271.5,207.3z"/>
	<path class="st2" d="M271.5,247c1.4,0,2.5-1.1,2.5-2.5v-2.9c0-1.4-1.1-2.5-2.5-2.5s-2.5,1.1-2.5,2.5v2.9
		C269,245.9,270.2,247,271.5,247z"/>
	<path class="st2" d="M271.5,339.6c1.4,0,2.5-1.1,2.5-2.5v-2.9c0-1.4-1.1-2.5-2.5-2.5s-2.5,1.1-2.5,2.5v2.9
		C269,338.5,270.2,339.6,271.5,339.6z"/>
	<path class="st2" d="M271.5,220.6c1.4,0,2.5-1.1,2.5-2.5v-2.9c0-1.4-1.1-2.5-2.5-2.5s-2.5,1.1-2.5,2.5v2.9
		C269,219.4,270.2,220.6,271.5,220.6z"/>
	<path class="st2" d="M271.5,233.8c1.4,0,2.5-1.1,2.5-2.5v-2.9c0-1.4-1.1-2.5-2.5-2.5s-2.5,1.1-2.5,2.5v2.9
		C269,232.7,270.2,233.8,271.5,233.8z"/>
	<path class="st2" d="M271.5,286.7c1.4,0,2.5-1.1,2.5-2.5v-2.9c0-1.4-1.1-2.5-2.5-2.5s-2.5,1.1-2.5,2.5v2.9
		C269,285.6,270.2,286.7,271.5,286.7z"/>
	<path class="st2" d="M271.5,432.2c1.4,0,2.5-1.1,2.5-2.5v-2.9c0-1.4-1.1-2.5-2.5-2.5s-2.5,1.1-2.5,2.5v2.9
		C269,431,270.2,432.2,271.5,432.2z"/>
	<path class="st2" d="M271.5,445.4c1.4,0,2.5-1.1,2.5-2.5V440c0-1.4-1.1-2.5-2.5-2.5s-2.5,1.1-2.5,2.5v2.9
		C269,444.3,270.2,445.4,271.5,445.4z"/>
	<path class="st2" d="M271.5,503.7c-1.4,0-2.5,1.1-2.5,2.5v2.9c0,1.4,1.1,2.5,2.5,2.5s2.5-1.1,2.5-2.5v-2.9
		C274,504.7,272.9,503.7,271.5,503.7z"/>
	<path class="st2" d="M271.5,490.4c-1.4,0-2.5,1.1-2.5,2.5v2.9c0,1.4,1.1,2.5,2.5,2.5s2.5-1.1,2.5-2.5v-2.9
		C274,491.5,272.9,490.4,271.5,490.4z"/>
	<path class="st2" d="M271.5,477.2c-1.4,0-2.5,1.1-2.5,2.5v2.9c0,1.4,1.1,2.5,2.5,2.5s2.5-1.1,2.5-2.5v-2.9
		C274,478.3,272.9,477.2,271.5,477.2z"/>
	<path class="st2" d="M271.5,366c1.4,0,2.5-1.1,2.5-2.5v-2.9c0-1.4-1.1-2.5-2.5-2.5s-2.5,1.1-2.5,2.5v2.9
		C269,364.9,270.2,366,271.5,366z"/>
	<path class="st2" d="M271.5,379.3c1.4,0,2.5-1.1,2.5-2.5v-2.9c0-1.4-1.1-2.5-2.5-2.5s-2.5,1.1-2.5,2.5v2.9
		C269,378.1,270.2,379.3,271.5,379.3z"/>
	<path class="st2" d="M271.5,418.9c1.4,0,2.5-1.1,2.5-2.5v-2.9c0-1.4-1.1-2.5-2.5-2.5s-2.5,1.1-2.5,2.5v2.9
		C269,417.8,270.2,418.9,271.5,418.9z"/>
	<path class="st2" d="M271.5,352.8c1.4,0,2.5-1.1,2.5-2.5v-2.9c0-1.4-1.1-2.5-2.5-2.5s-2.5,1.1-2.5,2.5v2.9
		C269,351.7,270.2,352.8,271.5,352.8z"/>
	<path class="st2" d="M271.5,405.7c1.4,0,2.5-1.1,2.5-2.5v-2.9c0-1.4-1.1-2.5-2.5-2.5s-2.5,1.1-2.5,2.5v2.9
		C269,404.6,270.2,405.7,271.5,405.7z"/>
	<path class="st2" d="M271.5,392.5c1.4,0,2.5-1.1,2.5-2.5v-2.9c0-1.4-1.1-2.5-2.5-2.5s-2.5,1.1-2.5,2.5v2.9
		C269,391.4,270.2,392.5,271.5,392.5z"/>
	<path class="st2" d="M422.6,273.3c1.4,0,2.5-1.1,2.5-2.5v-2.9c0-1.4-1.1-2.5-2.5-2.5c-1.4,0-2.5,1.1-2.5,2.5v2.9
		C420.1,272.1,421.2,273.3,422.6,273.3z"/>
	<path class="st2" d="M422.6,286.5c1.4,0,2.5-1.1,2.5-2.5v-2.9c0-1.4-1.1-2.5-2.5-2.5c-1.4,0-2.5,1.1-2.5,2.5v2.9
		C420.1,285.4,421.2,286.5,422.6,286.5z"/>
	<path class="st2" d="M422.6,260c1.4,0,2.5-1.1,2.5-2.5v-2.9c0-1.4-1.1-2.5-2.5-2.5c-1.4,0-2.5,1.1-2.5,2.5v2.9
		C420.1,258.9,421.2,260,422.6,260z"/>
	<path class="st2" d="M422.6,220.4c1.4,0,2.5-1.1,2.5-2.5V215c0-1.4-1.1-2.5-2.5-2.5c-1.4,0-2.5,1.1-2.5,2.5v2.9
		C420.1,219.2,421.2,220.4,422.6,220.4z"/>
	<path class="st2" d="M422.6,246.8c1.4,0,2.5-1.1,2.5-2.5v-2.9c0-1.4-1.1-2.5-2.5-2.5c-1.4,0-2.5,1.1-2.5,2.5v2.9
		C420.1,245.7,421.2,246.8,422.6,246.8z"/>
	<path class="st2" d="M422.6,312.9c1.4,0,2.5-1.1,2.5-2.5v-2.9c0-1.4-1.1-2.5-2.5-2.5c-1.4,0-2.5,1.1-2.5,2.5v2.9
		C420.1,311.8,421.2,312.9,422.6,312.9z"/>
	<path class="st2" d="M422.6,233.6c1.4,0,2.5-1.1,2.5-2.5v-2.9c0-1.4-1.1-2.5-2.5-2.5c-1.4,0-2.5,1.1-2.5,2.5v2.9
		C420.1,232.5,421.2,233.6,422.6,233.6z"/>
	<path class="st2" d="M422.6,299.7c1.4,0,2.5-1.1,2.5-2.5v-2.9c0-1.4-1.1-2.5-2.5-2.5c-1.4,0-2.5,1.1-2.5,2.5v2.9
		C420.1,298.6,421.2,299.7,422.6,299.7z"/>
	<path class="st2" d="M422.6,424.1c-1.4,0-2.5,1.1-2.5,2.5v2.9c0,1.4,1.1,2.5,2.5,2.5c1.4,0,2.5-1.1,2.5-2.5v-2.9
		C425.1,425.2,423.9,424.1,422.6,424.1z"/>
	<path class="st2" d="M422.6,326.2c1.4,0,2.5-1.1,2.5-2.5v-2.9c0-1.4-1.1-2.5-2.5-2.5c-1.4,0-2.5,1.1-2.5,2.5v2.9
		C420.1,325,421.2,326.2,422.6,326.2z"/>
	<path class="st2" d="M422.6,410.9c-1.4,0-2.5,1.1-2.5,2.5v2.9c0,1.4,1.1,2.5,2.5,2.5c1.4,0,2.5-1.1,2.5-2.5v-2.9
		C425.1,412,423.9,410.9,422.6,410.9z"/>
	<path class="st2" d="M422.6,437.3c-1.4,0-2.5,1.1-2.5,2.5v0.5c0,1.4,1.1,2.5,2.5,2.5c1.4,0,2.5-1.1,2.5-2.5v-0.5
		C425.1,438.4,423.9,437.3,422.6,437.3z"/>
	<path class="st2" d="M422.6,339.4c1.4,0,2.5-1.1,2.5-2.5V334c0-1.4-1.1-2.5-2.5-2.5c-1.4,0-2.5,1.1-2.5,2.5v2.9
		C420.1,338.3,421.2,339.4,422.6,339.4z"/>
	<path class="st2" d="M422.6,352.6c1.4,0,2.5-1.1,2.5-2.5v-2.9c0-1.4-1.1-2.5-2.5-2.5c-1.4,0-2.5,1.1-2.5,2.5v2.9
		C420.1,351.5,421.2,352.6,422.6,352.6z"/>
	<path class="st2" d="M422.6,365.8c1.4,0,2.5-1.1,2.5-2.5v-2.9c0-1.4-1.1-2.5-2.5-2.5c-1.4,0-2.5,1.1-2.5,2.5v2.9
		C420.1,364.7,421.2,365.8,422.6,365.8z"/>
	<path class="st2" d="M119.6,272.7c1.4,0,2.5-1.1,2.5-2.5v-2.9c0-1.4-1.1-2.5-2.5-2.5c-1.4,0-2.5,1.1-2.5,2.5v2.9
		C117.2,271.6,118.3,272.7,119.6,272.7z"/>
	<path class="st2" d="M119.6,285.9c1.4,0,2.5-1.1,2.5-2.5v-2.9c0-1.4-1.1-2.5-2.5-2.5c-1.4,0-2.5,1.1-2.5,2.5v2.9
		C117.2,284.8,118.3,285.9,119.6,285.9z"/>
	<path class="st2" d="M119.6,259.4c1.4,0,2.5-1.1,2.5-2.5v-2.9c0-1.4-1.1-2.5-2.5-2.5c-1.4,0-2.5,1.1-2.5,2.5v2.9
		C117.2,258.3,118.3,259.4,119.6,259.4z"/>
	<path class="st2" d="M119.6,246.2c1.4,0,2.5-1.1,2.5-2.5v-2.9c0-1.4-1.1-2.5-2.5-2.5c-1.4,0-2.5,1.1-2.5,2.5v2.9
		C117.2,245.1,118.3,246.2,119.6,246.2z"/>
	<path class="st2" d="M119.6,219.8c1.4,0,2.5-1.1,2.5-2.5v-2.9c0-1.4-1.1-2.5-2.5-2.5c-1.4,0-2.5,1.1-2.5,2.5v2.9
		C117.2,218.7,118.3,219.8,119.6,219.8z"/>
	<path class="st2" d="M119.6,233c1.4,0,2.5-1.1,2.5-2.5v-2.9c0-1.4-1.1-2.5-2.5-2.5c-1.4,0-2.5,1.1-2.5,2.5v2.9
		C117.2,231.9,118.3,233,119.6,233z"/>
	<path class="st2" d="M119.6,312.3c1.4,0,2.5-1.1,2.5-2.5V307c0-1.4-1.1-2.5-2.5-2.5c-1.4,0-2.5,1.1-2.5,2.5v2.9
		C117.2,311.2,118.3,312.3,119.6,312.3z"/>
	<path class="st2" d="M119.6,299.1c1.4,0,2.5-1.1,2.5-2.5v-2.9c0-1.4-1.1-2.5-2.5-2.5c-1.4,0-2.5,1.1-2.5,2.5v2.9
		C117.2,298,118.3,299.1,119.6,299.1z"/>
	<path class="st2" d="M119.6,436.7c-1.4,0-2.5,1.1-2.5,2.5v0.5c0,1.4,1.1,2.5,2.5,2.5c1.4,0,2.5-1.1,2.5-2.5v-0.5
		C122.1,437.9,121,436.7,119.6,436.7z"/>
	<path class="st2" d="M119.6,423.5c-1.4,0-2.5,1.1-2.5,2.5v2.9c0,1.4,1.1,2.5,2.5,2.5c1.4,0,2.5-1.1,2.5-2.5V426
		C122.1,424.6,121,423.5,119.6,423.5z"/>
	<path class="st2" d="M119.6,410.3c-1.4,0-2.5,1.1-2.5,2.5v2.9c0,1.4,1.1,2.5,2.5,2.5c1.4,0,2.5-1.1,2.5-2.5v-2.9
		C122.1,411.4,121,410.3,119.6,410.3z"/>
	<path class="st2" d="M119.6,325.6c1.4,0,2.5-1.1,2.5-2.5v-2.9c0-1.4-1.1-2.5-2.5-2.5c-1.4,0-2.5,1.1-2.5,2.5v2.9
		C117.2,324.5,118.3,325.6,119.6,325.6z"/>
	<path class="st2" d="M119.6,365.2c1.4,0,2.5-1.1,2.5-2.5v-2.9c0-1.4-1.1-2.5-2.5-2.5c-1.4,0-2.5,1.1-2.5,2.5v2.9
		C117.2,364.1,118.3,365.2,119.6,365.2z"/>
	<path class="st2" d="M119.6,338.8c1.4,0,2.5-1.1,2.5-2.5v-2.9c0-1.4-1.1-2.5-2.5-2.5c-1.4,0-2.5,1.1-2.5,2.5v2.9
		C117.2,337.7,118.3,338.8,119.6,338.8z"/>
	<path class="st2" d="M119.6,352c1.4,0,2.5-1.1,2.5-2.5v-2.9c0-1.4-1.1-2.5-2.5-2.5c-1.4,0-2.5,1.1-2.5,2.5v2.9
		C117.2,350.9,118.3,352,119.6,352z"/>
</g>
<path class="st0" d="M295.4,365.5c-9,4.3-23.7,4.3-32.6,0L32.7,255.2c-9-4.3-8.9-11.2,0.2-15.3L262.6,136c9.1-4.1,23.9-4.1,33,0
	l229.7,103.9c9.1,4.1,9.2,11,0.2,15.3L295.4,365.5z"/>
<path class="st1" d="M272.3,380c-7.5,0-14.7-1.4-20.3-4.1l-230-110.3c-10.8-5.2-11.9-12.9-11.8-16c0-3.1,1.3-10.8,12.2-15.7
	l229.7-103.9c5.5-2.5,12.7-3.9,20.3-3.9c7.5,0,14.7,1.4,20.3,3.9l229.7,103.9c10.9,4.9,12.2,12.6,12.2,15.7c0,3.1-1,10.8-11.8,16
	L292.6,375.9C287.1,378.6,279.9,380,272.3,380L272.3,380z M31.1,249.7l228.8,109.8c3.1,1.5,7.6,2.4,12.4,2.4c4.8,0,9.3-0.9,12.4-2.4
	l228.8-109.8L285.1,146.4c-3.2-1.4-7.9-2.3-12.8-2.3c-4.9,0-9.6,0.8-12.8,2.3L31.1,249.7z"/>
<path class="st0" d="M244.5,127.8c-24,14.1-49.8,24.8-73.9,38.5c20.7,38.1,60.5,65.3,106.8,62.1c47.2-3.2,83.9-19,104.1-58.7
	c-10.5-5.1-19.9-11.9-29.4-18.5"/>
<path class="st3" d="M380.7,111.3c0,56.9-46.1,103.1-103.1,103.1c-56.9,0-103.1-46.1-103.1-103.1c0-56.9,46.2-103.1,103.1-103.1
	C334.5,8.3,380.7,54.4,380.7,111.3"/>
<path class="st4" d="M326.7,153.7l-41-98.7c-1.2-2.9-3.5-4.3-6.4-4.3s-5.4,1.5-6.5,4.3l-45,108.3h15.5l17.8-44.6l53.2,43
	c2.1,1.7,3.7,2.5,5.7,2.5c4,0,7.5-3,7.5-7.4C327.4,156,327.1,154.9,326.7,153.7 M279.3,72.7l26.7,65.8l-40.3-31.7L279.3,72.7z"/>
<path class="st2" d="M272,292.1c-1.4,0-2.5,1.1-2.5,2.5v2.9c0,1.4,1.1,2.5,2.5,2.5s2.5-1.1,2.5-2.5v-2.9
	C274.5,293.1,273.3,292.1,272,292.1z"/>
<path class="st2" d="M272,265.6c-1.4,0-2.5,1.1-2.5,2.5v2.9c0,1.4,1.1,2.5,2.5,2.5s2.5-1.1,2.5-2.5v-2.9
	C274.5,266.7,273.3,265.6,272,265.6z"/>
<path class="st2" d="M272,278.8c-1.4,0-2.5,1.1-2.5,2.5v2.9c0,1.4,1.1,2.5,2.5,2.5s2.5-1.1,2.5-2.5v-2.9
	C274.5,279.9,273.3,278.8,272,278.8z"/>
<path class="st2" d="M272,252.4c-1.4,0-2.5,1.1-2.5,2.5v2.9c0,1.4,1.1,2.5,2.5,2.5s2.5-1.1,2.5-2.5v-2.9
	C274.5,253.5,273.3,252.4,272,252.4z"/>
<path class="st2" d="M272,239.2c-1.4,0-2.5,1.1-2.5,2.5v2.9c0,1.4,1.1,2.5,2.5,2.5s2.5-1.1,2.5-2.5v-2.9
	C274.5,240.2,273.3,239.2,272,239.2z"/>
<path class="st2" d="M272,345c-1.4,0-2.5,1.1-2.5,2.5v2.9c0,1.4,1.1,2.5,2.5,2.5s2.5-1.1,2.5-2.5v-2.9C274.5,346,273.3,345,272,345z
	"/>
<path class="st2" d="M272,305.3c-1.4,0-2.5,1.1-2.5,2.5v2.9c0,1.4,1.1,2.5,2.5,2.5s2.5-1.1,2.5-2.5v-2.9
	C274.5,306.4,273.3,305.3,272,305.3z"/>
<path class="st2" d="M272,331.7c-1.4,0-2.5,1.1-2.5,2.5v2.9c0,1.4,1.1,2.5,2.5,2.5s2.5-1.1,2.5-2.5v-2.9
	C274.5,332.8,273.3,331.7,272,331.7z"/>
<path class="st2" d="M272,318.5c-1.4,0-2.5,1.1-2.5,2.5v2.9c0,1.4,1.1,2.5,2.5,2.5s2.5-1.1,2.5-2.5V321
	C274.5,319.6,273.3,318.5,272,318.5z"/>
<path class="st2" d="M423,246.8c1.4,0,2.5-1.1,2.5-2.5v-2.9c0-1.4-1.1-2.5-2.5-2.5s-2.5,1.1-2.5,2.5v2.9
	C420.5,245.7,421.6,246.8,423,246.8z"/>
<path class="st2" d="M423,260c1.4,0,2.5-1.1,2.5-2.5v-2.9c0-1.4-1.1-2.5-2.5-2.5s-2.5,1.1-2.5,2.5v2.9
	C420.5,258.9,421.6,260,423,260z"/>
<path class="st2" d="M423,286.5c1.4,0,2.5-1.1,2.5-2.5v-2.9c0-1.4-1.1-2.5-2.5-2.5s-2.5,1.1-2.5,2.5v2.9
	C420.5,285.4,421.6,286.5,423,286.5z"/>
<path class="st2" d="M423,273.3c1.4,0,2.5-1.1,2.5-2.5v-2.9c0-1.4-1.1-2.5-2.5-2.5s-2.5,1.1-2.5,2.5v2.9
	C420.5,272.1,421.6,273.3,423,273.3z"/>
<path class="st2" d="M120.1,246.2c1.4,0,2.5-1.1,2.5-2.5v-2.9c0-1.4-1.1-2.5-2.5-2.5s-2.5,1.1-2.5,2.5v2.9
	C117.6,245.1,118.7,246.2,120.1,246.2z"/>
<path class="st2" d="M120.1,259.4c1.4,0,2.5-1.1,2.5-2.5v-2.9c0-1.4-1.1-2.5-2.5-2.5s-2.5,1.1-2.5,2.5v2.9
	C117.6,258.3,118.7,259.4,120.1,259.4z"/>
<path class="st2" d="M120.1,272.7c1.4,0,2.5-1.1,2.5-2.5v-2.9c0-1.4-1.1-2.5-2.5-2.5s-2.5,1.1-2.5,2.5v2.9
	C117.6,271.6,118.7,272.7,120.1,272.7z"/>
</svg>
